# xmcd
#
# Track frame offsets: 
#        150
#        22268
#        36167
#        51883
#        64384
#        83865
#        102016
#        117201
#        134313
#        148311
#        166874
#        181579
#        199699
#
# Disc length: 2928 seconds
#
# Revision: 2
# Processed by: cddbd v1.5.1PL2 Copyright (c) Steve Scherf et al.
# Submitted via: ExactAudioCopy v0.95a5
#
DISCID=b50b6e0d
DTITLE=Nik P. - Superstar
DYEAR=2003
DGENRE=Schlager
TTITLE0=Superstar
TTITLE1=1, 2, I love you
TTITLE2=Groesser als alles
TTITLE3=Undercover lover
TTITLE4=Frieden
TTITLE5=Trau' Dich
TTITLE6=Erwischt
TTITLE7=Suechtig nach Dir
TTITLE8=Schoen, dass es Dich gibt
TTITLE9=Im Sonnenlicht des Gluecks
TTITLE10=Heiss brennt die Sonne
TTITLE11=Harte Zeiten
TTITLE12=Mitten in der Nacht
EXTD=YEAR: 03
EXTT0=
EXTT1=
EXTT2=
EXTT3=
EXTT4=
EXTT5=
EXTT6=
EXTT7=
EXTT8=
EXTT9=
EXTT10=
EXTT11=
EXTT12=
PLAYORDER=
